<svg xmlns="http://www.w3.org/2000/svg" xmlns:xlink="http://www.w3.org/1999/xlink" width="1920" zoomAndPan="magnify" viewBox="0 0 1440 809.999993" height="1080" preserveAspectRatio="xMidYMid meet" version="1.2"><defs><clipPath id="1ee6af3b97"><path d="M 2 362.007812 L 927 362.007812 L 927 809.757812 L 2 809.757812 Z M 2 362.007812 "/></clipPath><clipPath id="868073649b"><path d="M 769.875 131.277344 L 1440 131.277344 L 1440 810 L 769.875 810 Z M 769.875 131.277344 "/></clipPath></defs><g id="b88a691b47"><rect x="0" width="1440" y="0" height="809.999993" style="fill:#ffffff;fill-opacity:1;stroke:none;"/><rect x="0" width="1440" y="0" height="809.999993" style="fill:#ffffff;fill-opacity:1;stroke:none;"/><g clip-rule="nonzero" clip-path="url(#1ee6af3b97)"><path style=" stroke:none;fill-rule:nonzero;fill:#b18259;fill-opacity:1;" d="M 180.488281 619.664062 C 182.519531 621.140625 182.929688 622.855469 183.484375 624.453125 C 185.800781 631.15625 186.921875 638.164062 188.554688 645.035156 C 189.730469 649.988281 189.890625 650.285156 194.753906 650.296875 C 206.746094 650.324219 218.730469 650.308594 230.722656 650.296875 C 231.726562 650.296875 232.746094 650.261719 233.742188 650.136719 C 235.046875 649.972656 235.8125 649.164062 235.980469 647.871094 C 236.089844 647.015625 236.128906 646.144531 236.128906 645.28125 C 236.136719 635.898438 236.128906 626.519531 236.144531 617.132812 C 236.144531 615.070312 236.128906 613.078125 234.128906 611.746094 C 233.683594 611.449219 233.367188 610.878906 233.132812 610.367188 C 232.292969 608.511719 232.695312 602.796875 233.914062 600.121094 C 236.039062 602.0625 236.386719 604.707031 237.1875 607.078125 C 238.875 612.085938 238.8125 612.144531 244.125 612.144531 C 274.75 612.152344 305.367188 612.148438 335.992188 612.144531 C 336.859375 612.144531 337.726562 612.117188 338.589844 612.101562 C 340.683594 612.070312 341.835938 611.042969 341.847656 608.917969 C 341.867188 603.582031 341.875 598.238281 341.835938 592.898438 C 341.835938 592.199219 341.757812 591.328125 341.355469 590.828125 C 337.476562 586.054688 339.90625 580.671875 339.300781 575.464844 C 341.242188 575.523438 341.167969 576.792969 341.480469 577.632812 C 343.011719 581.695312 344.039062 585.890625 344.90625 590.144531 C 345.769531 594.402344 346.328125 594.804688 350.738281 594.828125 C 358.972656 594.878906 367.207031 594.886719 375.441406 594.820312 C 379.40625 594.789062 379.890625 594.261719 379.964844 590.269531 C 380.03125 586.371094 380.039062 582.472656 379.964844 578.578125 C 379.886719 574.667969 379.402344 574.230469 375.320312 574.152344 C 372.144531 574.089844 368.964844 574.175781 365.789062 574.121094 C 361.554688 574.042969 361.011719 573.5625 360.992188 569.355469 C 360.933594 558.960938 360.980469 548.566406 360.960938 538.171875 C 360.960938 535.472656 361.476562 532.570312 358.398438 530.910156 C 358.082031 530.738281 357.828125 530.195312 357.796875 529.800781 C 357.511719 526.429688 357.019531 523.035156 358.148438 519.59375 C 360.125 520.152344 360.289062 521.742188 360.824219 522.984375 C 363.433594 528.976562 364.457031 535.441406 366.265625 541.667969 C 367.878906 547.210938 369.09375 552.863281 370.539062 558.457031 C 370.890625 559.808594 370.894531 561.320312 372.148438 562.566406 C 373.671875 561.734375 373.859375 559.984375 374.746094 558.765625 C 376.007812 557.035156 376.875 556.96875 377.960938 558.789062 C 379.066406 560.648438 379.921875 562.652344 380.945312 564.554688 C 382.886719 568.15625 385.574219 569.042969 389.167969 567.003906 C 391.796875 565.511719 394.265625 563.722656 396.75 561.976562 C 402.066406 558.253906 407.367188 554.496094 412.640625 550.695312 C 414.492188 549.359375 416.515625 548.886719 418.742188 548.902344 C 423.652344 548.929688 428.570312 548.949219 433.480469 548.882812 C 437.503906 548.824219 437.976562 548.363281 438.023438 544.378906 C 438.09375 538.605469 438.03125 532.832031 438.039062 527.054688 C 438.039062 525.222656 437.789062 523.609375 435.722656 522.902344 C 434.0625 522.332031 433.828125 520.871094 433.808594 519.367188 C 433.78125 516.769531 433.792969 514.171875 433.773438 511.574219 C 433.742188 507.972656 433.980469 504.355469 433.066406 500.804688 C 432.789062 499.71875 432.71875 498.550781 433.53125 497.230469 C 435.097656 498.34375 435.144531 499.984375 435.472656 501.429688 C 436.332031 505.226562 437.0625 509.058594 437.976562 512.847656 C 438.65625 515.660156 442.761719 516.890625 444.859375 514.902344 C 447.480469 512.421875 449.984375 509.820312 452.515625 507.242188 C 453.015625 506.730469 453.703125 506.167969 453.808594 505.539062 C 454.726562 500.035156 455.65625 494.503906 453.171875 489.128906 C 452.875 488.484375 452.457031 487.894531 452.148438 487.253906 C 452.027344 487 452.019531 486.6875 452.011719 486.402344 C 451.957031 482.226562 451.960938 478.046875 451.292969 473.90625 C 451.261719 473.714844 451.585938 473.476562 451.894531 473.050781 C 453.167969 474.078125 453.074219 475.621094 453.433594 476.914062 C 453.855469 478.445312 453.992188 480.054688 454.480469 481.554688 C 455.359375 484.226562 457.285156 484.757812 459.414062 483.050781 C 465.496094 478.167969 466.46875 473.566406 463.144531 466.449219 C 461.832031 463.644531 462.234375 460.65625 462.816406 457.25 C 464.519531 458.6875 464.082031 460.496094 464.808594 461.792969 C 465.789062 463.558594 466.742188 463.761719 468.125 462.320312 C 469.144531 461.265625 470.042969 460.078125 470.050781 458.546875 C 470.078125 454.980469 470.78125 451.363281 469.058594 447.910156 C 468.070312 445.914062 468.371094 443.707031 468.617188 441.328125 C 470.234375 441.804688 469.984375 443.09375 470.261719 444.042969 C 470.464844 444.730469 470.558594 445.546875 471.410156 445.710938 C 472.410156 445.90625 473.066406 445.207031 473.480469 444.460938 C 475.050781 441.605469 474.746094 438.585938 473.839844 435.65625 C 473.238281 433.722656 472.332031 431.898438 473.246094 429.855469 C 474.414062 429.519531 474.339844 430.5 474.632812 431.066406 C 475.238281 432.230469 475.910156 432.050781 476.464844 431.082031 C 476.734375 430.601562 476.957031 429.953125 476.871094 429.425781 C 476.082031 424.257812 478.195312 419.566406 479.234375 414.695312 C 479.601562 412.980469 479.667969 411.269531 479.679688 409.535156 C 479.742188 398.421875 479.742188 387.3125 479.894531 376.199219 C 479.941406 372.636719 480.882812 369.109375 479.699219 365.511719 C 479.34375 364.433594 479.714844 362.910156 481.238281 362 C 482.59375 363.128906 482.675781 364.703125 482.605469 366.242188 C 481.921875 381.378906 482.335938 396.527344 482.484375 411.664062 C 482.523438 415.605469 483.578125 419.617188 485.210938 423.320312 C 485.699219 424.433594 485.730469 425.542969 485.792969 426.691406 C 485.882812 428.257812 485.535156 429.875 486.328125 431.363281 C 488 431.96875 487.089844 429.558594 488.769531 429.867188 C 489.640625 431.351562 489.296875 433.125 488.480469 434.8125 C 486.941406 438.003906 487.992188 441.027344 488.917969 444.0625 C 489.171875 444.882812 489.613281 445.78125 490.652344 445.707031 C 491.675781 445.632812 491.90625 444.648438 492.273438 443.875 C 492.699219 442.984375 492.445312 441.828125 493.605469 440.875 C 494.9375 443.386719 494.992188 445.941406 493.453125 447.988281 C 491.878906 450.085938 491.789062 452.203125 491.984375 454.507812 C 492.101562 455.945312 492.382812 457.363281 492.125 458.8125 C 491.941406 459.847656 492.125 460.84375 492.765625 461.695312 C 493.46875 462.617188 494.226562 463.621094 495.5625 463.390625 C 496.871094 463.167969 497.464844 462.105469 497.640625 460.910156 C 497.828125 459.632812 497.828125 458.328125 497.898438 457.03125 C 497.960938 455.875 497.953125 454.71875 498.097656 453.582031 C 498.1875 452.890625 498.433594 452.066406 499.421875 452.28125 C 500.054688 452.417969 500.390625 453.074219 500.277344 453.617188 C 499.371094 457.996094 500.429688 462.625 498.824219 466.867188 C 497.585938 470.132812 497.742188 473.417969 498.066406 476.6875 C 498.410156 480.167969 501.40625 481.917969 503.828125 483.902344 C 504.792969 484.691406 505.714844 483.84375 506.46875 483.136719 C 507.6875 481.972656 508.03125 480.441406 508.363281 478.863281 C 508.792969 476.789062 509.019531 474.621094 510.199219 472.921875 C 511.292969 472.945312 511.574219 473.519531 511.460938 474.078125 C 510.726562 477.652344 510.921875 481.261719 510.890625 484.863281 C 510.875 486.648438 510.730469 488.320312 508.96875 489.382812 C 507.699219 490.144531 507.523438 491.457031 507.496094 492.792969 C 507.492188 493.082031 507.484375 493.371094 507.476562 493.660156 C 507.0625 505.191406 508.480469 508.242188 517.550781 515.296875 C 519.246094 516.617188 523.550781 515.273438 523.957031 513.121094 C 525.199219 506.609375 527.160156 500.222656 527.359375 493.535156 C 527.40625 491.988281 527.492188 490.449219 529.054688 489.222656 C 529.054688 492.777344 529.511719 496.410156 528.953125 499.875 C 528.027344 505.640625 528.339844 511.390625 528.242188 517.144531 C 528.195312 519.753906 528.519531 522.398438 525.195312 523.53125 C 523.96875 523.949219 523.984375 525.40625 523.984375 526.5625 C 523.964844 532.773438 523.894531 538.976562 524.003906 545.1875 C 524.058594 548.269531 524.6875 548.808594 528.042969 548.859375 C 533.964844 548.949219 539.886719 548.953125 545.8125 548.871094 C 548.535156 548.832031 550.753906 549.566406 552.9375 551.328125 C 558.773438 556.039062 564.816406 560.496094 570.800781 565.019531 C 571.949219 565.886719 573.121094 566.789062 574.414062 567.378906 C 577.4375 568.75 579.632812 567.960938 581.257812 565.023438 C 582.371094 563.003906 583.277344 560.859375 584.449219 558.878906 C 585.570312 556.988281 586.417969 557.015625 587.667969 558.660156 C 588.492188 559.746094 588.613281 562 590.289062 561.644531 C 592.035156 561.273438 591.734375 559.023438 592.121094 557.570312 C 594.5625 548.359375 596.929688 539.132812 599.261719 529.898438 C 600.007812 526.941406 601.261719 524.179688 602.363281 521.355469 C 602.613281 520.714844 602.878906 519.988281 604.101562 520.019531 C 604.867188 523.191406 604.566406 526.445312 604.28125 529.679688 C 604.246094 530.074219 604.015625 530.628906 603.707031 530.800781 C 600.542969 532.597656 601.089844 535.632812 601.085938 538.472656 C 601.070312 546.414062 601.140625 554.347656 601.0625 562.289062 C 600.933594 575.859375 602.835938 573.953125 589.453125 574.125 C 588.152344 574.140625 586.851562 574.074219 585.554688 574.171875 C 582.820312 574.375 582.164062 574.886719 582.085938 577.539062 C 581.957031 582.15625 581.957031 586.777344 582.085938 591.390625 C 582.160156 594.046875 582.828125 594.746094 585.523438 594.773438 C 595.636719 594.859375 605.742188 594.796875 615.855469 594.8125 C 618.371094 594.8125 619.460938 593.363281 619.875 591.128906 C 620.683594 586.726562 621.570312 582.339844 623.207031 578.152344 C 623.65625 577.015625 623.78125 575.636719 625.582031 574.890625 C 626.578125 577.703125 626.074219 580.429688 626.152344 583.074219 C 626.222656 585.65625 626.46875 588.3125 623.835938 590.078125 C 622.789062 590.777344 622.75 592.070312 622.75 593.234375 C 622.734375 598.285156 622.660156 603.339844 622.773438 608.390625 C 622.84375 611.386719 623.441406 611.886719 626.363281 612.101562 C 627.511719 612.183594 628.675781 612.144531 629.828125 612.144531 C 659.296875 612.144531 688.761719 612.144531 718.230469 612.144531 C 719.386719 612.144531 720.542969 612.097656 721.695312 612.121094 C 724.050781 612.179688 725.4375 611.160156 726.039062 608.804688 C 726.644531 606.429688 727.519531 604.128906 728.324219 601.804688 C 728.554688 601.144531 728.808594 600.277344 729.679688 600.335938 C 730.808594 600.40625 730.957031 601.453125 730.933594 602.269531 C 730.808594 606.023438 732.269531 610.144531 728.347656 613.050781 C 727.523438 613.660156 727.625 614.898438 727.625 615.910156 C 727.613281 626.304688 727.566406 636.699219 727.640625 647.09375 C 727.664062 650.472656 728.296875 651.058594 731.835938 651.074219 C 744.398438 651.136719 756.96875 651.132812 769.535156 651.074219 C 773.089844 651.058594 773.636719 650.558594 774.511719 646.945312 C 775.707031 642.042969 776.8125 637.109375 777.871094 632.175781 C 778.75 628.089844 779.839844 624.09375 781.941406 620.242188 C 783.535156 623.382812 783.707031 629.488281 781.964844 631.757812 C 780.585938 633.550781 780.449219 635.414062 780.449219 637.441406 C 780.449219 647.113281 780.449219 656.78125 780.449219 666.457031 C 780.449219 667.609375 780.460938 668.769531 780.449219 669.921875 C 780.386719 675.019531 780.046875 675.398438 775.085938 675.445312 C 769.742188 675.492188 764.398438 675.476562 759.050781 675.46875 C 750.660156 675.453125 750.949219 675.070312 750.980469 683.472656 C 750.996094 687.371094 750.925781 691.269531 751.003906 695.164062 C 751.078125 698.972656 751.585938 699.605469 755.199219 699.601562 C 762.851562 699.601562 770.503906 699.863281 778.160156 699.429688 C 780.738281 699.28125 783.339844 699.652344 785.933594 699.609375 C 789.261719 699.558594 790.015625 699.039062 790.613281 695.75 C 791.34375 691.738281 792.742188 687.964844 794.148438 684.175781 C 794.347656 683.644531 794.554688 683.097656 795.175781 682.894531 C 796.730469 686.863281 796.417969 692.132812 794.308594 695.8125 C 793.765625 696.757812 793.324219 697.78125 793.902344 698.652344 C 795.457031 700.992188 794.605469 703.398438 794.347656 705.792969 C 794.0625 708.371094 793.683594 710.945312 793.410156 713.523438 C 793.269531 714.847656 793 716.140625 792.105469 717.128906 C 790.199219 719.230469 789.976562 721.722656 789.992188 724.390625 C 790.046875 735.21875 789.992188 746.046875 790.03125 756.871094 C 790.046875 761.632812 790.433594 761.992188 795.289062 762.015625 C 802.078125 762.046875 808.882812 762.308594 815.65625 761.9375 C 830.746094 761.113281 845.101562 757.789062 857.390625 748.289062 C 862.660156 744.214844 867.355469 739.554688 871.441406 734.300781 C 880.75 722.324219 887.296875 708.871094 892.582031 694.742188 C 902.441406 668.398438 908.335938 641.054688 912.960938 613.40625 C 914.886719 601.882812 916.480469 590.304688 918.238281 578.757812 C 918.6875 575.8125 922.425781 572.835938 925.320312 573.082031 C 926.1875 573.15625 926.652344 573.699219 926.734375 574.449219 C 926.875 575.738281 926.902344 577.035156 926.921875 578.332031 C 927.117188 592.757812 926.417969 607.1875 925.859375 621.582031 C 924.925781 645.476562 923.480469 669.382812 919.253906 693.003906 C 916.347656 709.257812 912.640625 725.230469 904.585938 739.894531 C 902.492188 743.707031 903.378906 747.789062 904.933594 751.625 C 906.84375 756.335938 909.371094 760.761719 912.695312 764.578125 C 915.507812 767.808594 915.527344 770.648438 913.519531 774.3125 C 902.613281 794.226562 885.910156 805.597656 863.519531 808.890625 C 858.496094 809.632812 853.464844 809.765625 848.410156 809.765625 C 648.0625 809.75 447.714844 809.761719 247.371094 809.75 C 176.015625 809.75 104.660156 809.699219 33.300781 809.773438 C 29.179688 809.773438 25.824219 808.867188 22.660156 806.125 C 12.371094 797.195312 5.53125 786.246094 3.070312 772.835938 C 0.0351562 756.328125 3.699219 740.972656 12.179688 726.734375 C 16.273438 719.855469 22.09375 714.347656 28.0625 709.101562 C 30.445312 707.003906 32.847656 704.9375 35.074219 702.679688 C 40.757812 696.917969 47.164062 691.976562 53.28125 686.707031 C 56.246094 684.15625 58.972656 681.390625 61.671875 678.578125 C 62.359375 677.859375 62.914062 676.980469 63.429688 676.113281 C 67.300781 669.671875 64.753906 663.464844 57.4375 661.878906 C 54.492188 661.242188 51.429688 660.761719 48.429688 660.828125 C 41.429688 660.96875 34.617188 659.964844 27.828125 658.492188 C 24.179688 657.707031 23.878906 657.984375 23.804688 661.785156 C 23.746094 664.527344 23.898438 667.277344 23.761719 670.015625 C 23.621094 672.96875 24.253906 675.203125 27.082031 676.90625 C 29.894531 678.605469 30.492188 681.441406 29.460938 684.515625 C 28.480469 687.433594 26.359375 688.945312 23.34375 689.242188 C 19.699219 689.601562 17.214844 688.0625 15.882812 684.667969 C 14.804688 681.90625 15.589844 678.117188 18.410156 676.6875 C 21.8125 674.960938 22.230469 672.441406 22.0625 669.226562 C 21.921875 666.492188 21.972656 663.742188 22.035156 661 C 22.09375 658.578125 21.363281 656.761719 18.859375 655.996094 C 18.308594 655.828125 17.78125 655.554688 17.296875 655.25 C 15.488281 654.105469 15.261719 653.015625 16.550781 651.355469 C 18.210938 649.210938 20.648438 648.726562 23.132812 648.632812 C 26.597656 648.5 30.0625 648.5625 33.53125 648.542969 C 35.261719 648.53125 37 648.589844 38.726562 648.496094 C 42.105469 648.3125 43.910156 647.320312 44.039062 644.007812 C 44.363281 635.894531 49.382812 631.199219 55.347656 627.117188 C 59.484375 624.285156 63.511719 621.539062 63.660156 615.75 C 65.980469 616.191406 66.460938 617.632812 66.835938 618.953125 C 67.453125 621.097656 68.851562 621.132812 70.546875 620.605469 C 73.53125 619.675781 75.960938 618.070312 77.710938 615.355469 C 79.09375 613.210938 80.941406 612.863281 82.109375 614.960938 C 84.714844 619.628906 88.445312 618.832031 92.515625 618.226562 C 97.738281 617.449219 102.273438 615.703125 105.226562 611.011719 C 105.65625 610.320312 106.175781 609.386719 107.246094 609.800781 C 107.960938 610.078125 108.167969 610.886719 108.304688 611.585938 C 109.335938 616.902344 108.621094 621.96875 105.710938 626.554688 C 104.613281 628.28125 103.660156 629.519531 105.761719 631.261719 C 107.183594 632.4375 107.085938 634.390625 106.785156 636.144531 C 106.242188 639.300781 105.230469 642.25 103.324219 644.921875 C 101.496094 647.496094 101.949219 648.898438 104.78125 650.390625 C 107.40625 651.769531 110.25 652.070312 113.191406 652.019531 C 116.285156 651.960938 116.964844 652.863281 116.339844 655.9375 C 115.863281 658.253906 114.761719 660.289062 113.09375 661.957031 C 111.464844 663.589844 109.726562 665.121094 108.046875 666.695312 C 106.222656 668.414062 105.640625 670.867188 106.582031 672.957031 C 107.59375 675.210938 109.570312 675.4375 111.683594 675.328125 C 112.257812 675.296875 112.828125 675.179688 113.394531 675.082031 C 117.246094 674.433594 118.015625 675.191406 117.105469 679.019531 C 116 683.671875 113.140625 686.9375 108.878906 689.042969 C 107.75 689.601562 106.304688 689.601562 105.40625 691.0625 C 107.496094 694.253906 110.710938 695.109375 114.261719 695.128906 C 118.085938 695.15625 119.066406 696.28125 117.867188 700.023438 C 116.375 704.671875 113.066406 707.824219 108.808594 710.019531 C 106.738281 711.089844 104.472656 711.558594 102.199219 712.03125 C 100.707031 712.335938 99.046875 712.296875 97.601562 713.5 C 98.472656 716.085938 100.691406 717.261719 102.652344 718.621094 C 104.324219 719.777344 106.277344 720.378906 108.214844 720.988281 C 109.273438 721.324219 110.824219 721.152344 111.140625 722.464844 C 111.554688 724.175781 109.9375 724.949219 108.851562 725.789062 C 106.859375 727.328125 104.46875 727.929688 102 728.253906 C 99.710938 728.554688 97.429688 728.910156 95.132812 729.175781 C 93.136719 729.40625 92.421875 730.4375 92.675781 732.417969 C 92.953125 734.554688 93.035156 736.722656 93.21875 738.875 C 93.515625 742.289062 94.691406 745.179688 97.292969 747.648438 C 105.246094 755.199219 102.320312 754.136719 113.058594 754.246094 C 116.953125 754.285156 120.859375 754.175781 124.753906 754.3125 C 128.808594 754.453125 129.925781 755.3125 131.132812 759.285156 C 131.566406 760.714844 132.359375 761.109375 133.609375 761.128906 C 135.34375 761.160156 137.074219 761.171875 138.808594 761.171875 C 147.328125 761.171875 155.855469 761.167969 164.375 761.175781 C 168.402344 761.183594 172.472656 760.824219 176.320312 762.566406 C 176.945312 762.847656 177.734375 762.804688 178.453125 762.851562 C 183.28125 763.144531 184.046875 762.480469 184.0625 757.675781 C 184.09375 746.269531 184.035156 734.867188 184.09375 723.460938 C 184.109375 720.671875 183.625 718.296875 180.796875 717.007812 C 179.042969 716.210938 178.917969 714.601562 178.914062 712.96875 C 178.902344 708.636719 178.886719 704.308594 178.898438 699.976562 C 178.898438 698.054688 178.835938 696.210938 176.992188 694.984375 C 176.25 694.488281 175.75 693.714844 175.683594 692.824219 C 175.449219 689.707031 175.09375 686.578125 175.960938 683.539062 C 177.625 683.261719 177.820312 684.488281 178.191406 685.320312 C 179.621094 688.492188 180.40625 691.863281 181.140625 695.257812 C 181.976562 699.125 182.582031 699.59375 186.359375 699.605469 C 197.316406 699.648438 208.273438 699.65625 219.230469 699.605469 C 223.480469 699.585938 223.933594 699.101562 223.988281 694.832031 C 224.054688 690.066406 224.042969 685.304688 223.988281 680.539062 C 223.941406 675.886719 223.519531 675.472656 218.648438 675.453125 C 210.273438 675.414062 201.898438 675.441406 193.515625 675.4375 C 192.070312 675.4375 190.625 675.4375 189.1875 675.425781 C 183.492188 675.375 183.25 675.148438 183.222656 669.628906 C 183.195312 663.710938 183.21875 657.789062 183.21875 651.871094 C 183.21875 646.960938 183.226562 642.058594 183.210938 637.148438 C 183.203125 634.714844 183.585938 632.148438 180.824219 630.683594 C 180.1875 630.34375 179.957031 629.511719 179.929688 628.78125 C 179.839844 625.945312 179.414062 623.085938 180.457031 619.652344 Z M 694.339844 676.855469 C 700.941406 682.574219 707.332031 687.410156 713.785156 692.164062 C 715.472656 693.40625 716.6875 692.796875 717.617188 691.058594 C 718.429688 689.535156 719.332031 688.054688 720.273438 686.597656 C 721.882812 684.109375 722.660156 684.121094 724.132812 686.71875 C 725.984375 689.980469 727.6875 693.324219 729.558594 696.570312 C 730.675781 698.503906 731.59375 698.65625 732.765625 696.957031 C 737.011719 690.773438 741.175781 684.527344 745.261719 678.238281 C 746.414062 676.460938 745.917969 675.777344 743.691406 675.515625 C 743.121094 675.445312 742.535156 675.472656 741.957031 675.472656 C 728.964844 675.472656 715.972656 675.472656 702.980469 675.476562 C 700.261719 675.476562 697.648438 676.046875 694.324219 676.855469 Z M 248.492188 675.5625 C 242.101562 675.394531 236.308594 675.320312 230.507812 675.628906 C 229.386719 675.6875 229.089844 676.699219 229.625 677.535156 C 231.996094 681.230469 234.148438 685.089844 237.445312 688.742188 C 241 684.34375 245.617188 681.300781 248.492188 675.5625 Z M 248.492188 675.5625 "/></g><g clip-rule="nonzero" clip-path="url(#868073649b)"><path style=" stroke:none;fill-rule:nonzero;fill:#b18259;fill-opacity:1;" d="M 992.847656 580.402344 C 993.082031 583.027344 993.285156 585.65625 993.558594 588.277344 C 993.738281 589.972656 993.800781 591.320312 996.386719 590.128906 C 998.300781 589.246094 1000.480469 589.292969 1000.285156 586.378906 C 1000.273438 586.152344 1000.917969 585.800781 1001.316406 585.644531 C 1004.589844 584.363281 1007.238281 582.019531 1010.332031 580.4375 C 1011.992188 579.585938 1012.375 578.085938 1012.132812 576.480469 C 1011.605469 573.015625 1013.101562 571.367188 1016.285156 569.964844 C 1032.578125 562.804688 1042.503906 550.351562 1045.261719 532.734375 C 1046.613281 524.097656 1047.316406 515.328125 1044.914062 506.621094 C 1044.0625 503.539062 1043.894531 500.214844 1046.738281 497.703125 C 1047.613281 496.929688 1047.277344 496.085938 1046.9375 495.199219 C 1046.234375 493.351562 1046.34375 491.492188 1047.644531 490.015625 C 1048.867188 488.632812 1048.992188 487.113281 1048.988281 485.433594 C 1048.964844 476.921875 1049.007812 468.40625 1048.96875 459.898438 C 1048.90625 446.566406 1055.148438 437.078125 1066.71875 430.9375 C 1068.867188 429.800781 1070.605469 428.707031 1070.882812 426.054688 C 1071.007812 424.875 1071.609375 423.632812 1072.65625 423.050781 C 1076.269531 421.042969 1075.5625 417.988281 1074.796875 414.917969 C 1074.460938 413.574219 1074.03125 412.242188 1074.308594 410.863281 C 1074.796875 408.371094 1076.636719 407.207031 1078.914062 406.757812 C 1080.867188 406.367188 1081.828125 405.535156 1082.085938 403.375 C 1082.511719 399.773438 1083.488281 396.292969 1087.488281 394.832031 C 1088.117188 394.601562 1088.449219 393.988281 1088.648438 393.367188 C 1089.535156 390.578125 1090.714844 388.128906 1093.925781 387.242188 C 1095.03125 386.933594 1094.925781 385.6875 1094.761719 384.621094 C 1093.960938 379.535156 1094.835938 377.605469 1099.355469 375.398438 C 1101.046875 374.574219 1101.632812 373.71875 1101.296875 371.820312 C 1100.761719 368.824219 1102.46875 366.554688 1104.789062 365.164062 C 1107.808594 363.351562 1108.378906 359.675781 1111.117188 357.71875 C 1111.792969 357.230469 1111.339844 356.15625 1111.253906 355.351562 C 1110.792969 351.183594 1111.613281 349.363281 1115.300781 347.609375 C 1117.074219 346.765625 1117.769531 345.675781 1117.621094 343.785156 C 1117.390625 340.855469 1118.308594 338.359375 1120.765625 336.597656 C 1121.816406 335.84375 1122.214844 334.714844 1122.601562 333.609375 C 1123.40625 331.292969 1124.5625 329.277344 1126.789062 328.046875 C 1127.984375 327.382812 1128.09375 326.359375 1127.652344 325.214844 C 1126.515625 322.292969 1127.742188 320.242188 1130.109375 318.683594 C 1131.402344 317.832031 1132.378906 317.035156 1132.082031 315.191406 C 1131.84375 313.703125 1132.765625 312.390625 1133.597656 311.164062 C 1135.511719 308.347656 1136.726562 305.167969 1138.328125 302.1875 C 1139.003906 300.925781 1138.6875 300.078125 1137.671875 299.082031 C 1133.925781 295.425781 1134.167969 292.074219 1138.28125 288.777344 C 1140.0625 287.351562 1140.039062 285.394531 1139.511719 283.539062 C 1138.511719 280.019531 1139.367188 277.183594 1142.296875 275.101562 C 1143.480469 274.257812 1143.496094 273.554688 1142.949219 272.367188 C 1139.648438 265.199219 1140.882812 258.242188 1144.304688 251.542969 C 1146.132812 247.960938 1148.429688 244.625 1151.207031 241.667969 C 1151.820312 241.011719 1152.621094 240.457031 1151.59375 239.414062 C 1145.839844 233.605469 1145.671875 226.367188 1146.46875 218.914062 C 1147.375 210.398438 1151.0625 202.746094 1154.175781 194.953125 C 1158.808594 183.339844 1160.457031 171.324219 1159.917969 158.914062 C 1159.851562 157.425781 1159.4375 156.480469 1157.789062 156.3125 C 1156.402344 156.171875 1155.238281 155.480469 1155.222656 153.945312 C 1155.203125 152.28125 1156.195312 151.238281 1157.851562 150.917969 C 1158.78125 150.734375 1159.6875 150.570312 1159.792969 149.371094 C 1159.878906 148.394531 1159.3125 147.898438 1158.5 147.5 C 1157.222656 146.871094 1156.871094 145.664062 1157.992188 144.890625 C 1161.121094 142.726562 1160.011719 139.898438 1159.320312 137.257812 C 1158.828125 135.386719 1159.054688 133.835938 1160.066406 132.320312 C 1160.753906 131.285156 1161.511719 131.28125 1162.171875 132.371094 C 1163.167969 134.011719 1163.609375 135.765625 1162.824219 137.605469 C 1162.339844 138.726562 1162.164062 139.867188 1162.148438 141.070312 C 1162.136719 142.59375 1162.203125 143.828125 1164.074219 144.492188 C 1165.773438 145.089844 1165.699219 146.636719 1164.042969 147.4375 C 1163.097656 147.894531 1162.066406 148.132812 1162.289062 149.460938 C 1162.542969 150.980469 1163.804688 150.804688 1164.882812 150.832031 C 1166.621094 150.875 1168.363281 150.847656 1170.097656 150.882812 C 1170.632812 150.890625 1171.328125 150.902344 1171.386719 151.585938 C 1171.410156 151.925781 1170.992188 152.359375 1170.6875 152.65625 C 1169.082031 154.203125 1167.316406 155.628906 1165.09375 155.960938 C 1162.433594 156.359375 1162.171875 157.898438 1162.074219 160.191406 C 1161.480469 174.226562 1164.871094 187.398438 1170.308594 200.179688 C 1173.136719 206.835938 1175.957031 213.519531 1176.710938 220.816406 C 1177.414062 227.625 1177.222656 234.25 1171.628906 239.335938 C 1170.398438 240.457031 1171.394531 241.035156 1172.007812 241.789062 C 1174.972656 245.398438 1177.84375 249.035156 1179.898438 253.300781 C 1182.882812 259.488281 1184.816406 265.742188 1182.4375 272.589844 C 1181.96875 273.941406 1182.738281 274.652344 1183.621094 275.347656 C 1186.160156 277.339844 1186.765625 279.953125 1186.070312 282.96875 C 1185.445312 285.675781 1185.921875 287.878906 1188.160156 289.855469 C 1191.019531 292.386719 1190.886719 296.191406 1187.949219 298.707031 C 1186.605469 299.851562 1186.464844 300.796875 1187.269531 302.203125 C 1189.089844 305.375 1190.738281 308.675781 1192.210938 311.972656 C 1193.671875 315.246094 1194.597656 318.613281 1197.601562 320.96875 C 1198.523438 321.695312 1198.597656 323.179688 1198.082031 324.328125 C 1197.1875 326.3125 1197.914062 327.523438 1199.542969 328.691406 C 1200.472656 329.363281 1201.292969 330.367188 1201.804688 331.398438 C 1203.078125 333.9375 1204.355469 336.390625 1206.453125 338.425781 C 1207.972656 339.894531 1208.148438 342.0625 1207.945312 344.089844 C 1207.796875 345.570312 1208.128906 346.429688 1209.53125 347.140625 C 1214.222656 349.535156 1214.699219 350.480469 1214.101562 355.847656 C 1213.964844 357.082031 1214.558594 357.675781 1215.199219 358.621094 C 1217.453125 361.933594 1220.308594 364.625 1223.089844 367.433594 C 1223.976562 368.332031 1224.410156 369.753906 1224.152344 371.027344 C 1223.601562 373.738281 1225.015625 374.871094 1227.1875 376 C 1230.296875 377.617188 1231.902344 380.292969 1231.074219 383.964844 C 1230.632812 385.925781 1230.9375 387.398438 1233.136719 387.996094 C 1233.558594 388.113281 1234.132812 388.382812 1234.265625 388.726562 C 1236.445312 394.460938 1243.921875 397.070312 1243.476562 404.355469 C 1243.378906 405.910156 1244.613281 406.230469 1245.800781 406.578125 C 1251.085938 408.128906 1252.078125 409.929688 1250.578125 415.242188 C 1249.746094 418.1875 1249.28125 420.972656 1252.574219 422.878906 C 1253.425781 423.371094 1254.199219 424.238281 1254.351562 425.25 C 1254.828125 428.40625 1256.820312 429.84375 1259.554688 431.273438 C 1267.425781 435.390625 1272.773438 441.835938 1275.417969 450.402344 C 1276.074219 452.511719 1276.402344 454.65625 1276.394531 456.882812 C 1276.355469 466.402344 1276.394531 475.925781 1276.363281 485.445312 C 1276.359375 487.148438 1276.554688 488.695312 1277.863281 489.96875 C 1278.667969 490.753906 1279.367188 491.929688 1279 492.933594 C 1278.003906 495.664062 1279.089844 497.683594 1280.441406 499.9375 C 1281.644531 501.949219 1281.617188 504.453125 1280.695312 506.605469 C 1278.472656 511.800781 1279.023438 517.230469 1279.203125 522.582031 C 1279.453125 529.90625 1280.441406 537.132812 1283.332031 544.007812 C 1288.617188 556.578125 1297.746094 565.214844 1310.191406 570.40625 C 1312.433594 571.339844 1313.527344 572.476562 1313.175781 574.832031 C 1312.695312 578.085938 1313.9375 580.214844 1316.984375 581.542969 C 1318.722656 582.304688 1320.167969 583.769531 1321.921875 584.488281 C 1324.25 585.441406 1323.472656 588.328125 1325.03125 589.238281 C 1326.582031 590.148438 1329.027344 589.550781 1329.535156 592.242188 C 1334.332031 589.34375 1332.191406 584.226562 1333.757812 580.199219 C 1334.035156 582.847656 1334.332031 585.492188 1334.566406 588.144531 C 1334.675781 589.394531 1334.835938 590.621094 1336.28125 590.925781 C 1337.835938 591.253906 1338.429688 589.921875 1338.832031 588.898438 C 1342.511719 579.515625 1347.6875 570.703125 1350.234375 560.9375 C 1351.273438 556.945312 1351.734375 552.597656 1352.03125 548.378906 C 1352.226562 545.652344 1352.734375 543.144531 1354.070312 540.789062 C 1354.613281 539.835938 1355.132812 538.964844 1354.5625 537.730469 C 1353.359375 535.117188 1353.605469 532.386719 1354.222656 529.65625 C 1355.1875 525.375 1357.019531 521.300781 1357.375 516.882812 C 1357.574219 514.421875 1358.515625 511.738281 1355.988281 509.753906 C 1355.757812 509.574219 1355.597656 508.867188 1355.632812 508.851562 C 1358.347656 507.429688 1356.851562 504.503906 1358.363281 502.417969 C 1358.714844 504.90625 1359.800781 507.558594 1359.28125 509.851562 C 1358.03125 515.417969 1359.164062 520.546875 1360.765625 525.734375 C 1362.054688 529.898438 1362.949219 534.066406 1361.0625 538.304688 C 1360.65625 539.222656 1361.269531 539.882812 1361.640625 540.589844 C 1363.019531 543.230469 1364.082031 545.921875 1363.328125 548.996094 C 1362.945312 550.574219 1363.855469 552.003906 1364.046875 553.53125 C 1364.78125 559.476562 1365.945312 565.300781 1368.488281 570.871094 C 1371.105469 576.597656 1374.070312 582.191406 1376.089844 588.195312 C 1376.507812 589.453125 1377.078125 591.261719 1379.019531 590.871094 C 1380.773438 590.523438 1380.699219 588.898438 1380.65625 587.519531 C 1380.589844 585.128906 1380.984375 582.804688 1381.445312 580.066406 C 1382.179688 582.316406 1382.394531 584.234375 1382.347656 586.199219 C 1382.304688 588.230469 1382.167969 590.28125 1384.371094 591.464844 C 1384.648438 591.613281 1384.933594 592.082031 1384.910156 592.375 C 1384.621094 595.648438 1387.378906 598.269531 1386.816406 601.621094 C 1386.613281 602.832031 1387.273438 603.921875 1387.933594 604.9375 C 1389.972656 608.0625 1390.195312 611.234375 1388.121094 614.453125 C 1386.574219 616.855469 1386.410156 619.101562 1388.414062 621.476562 C 1390.105469 623.472656 1389.78125 625.695312 1388.285156 627.796875 C 1387.445312 628.980469 1386.363281 630.210938 1387.144531 631.785156 C 1387.710938 632.929688 1388.582031 634.042969 1389.898438 634.296875 C 1390.988281 634.503906 1391.957031 633.570312 1392.238281 632.710938 C 1392.683594 631.359375 1394.023438 630.019531 1392.746094 628.394531 C 1392.070312 627.539062 1391.457031 626.609375 1390.96875 625.640625 C 1389.222656 622.152344 1389.605469 620.140625 1392.59375 617.6875 C 1394.722656 615.941406 1395.921875 614.078125 1394.308594 611.34375 C 1393.921875 610.691406 1393.859375 609.832031 1394.324219 609.238281 C 1397.5 605.1875 1396.101562 599.921875 1397.988281 595.53125 C 1398.210938 595.003906 1398.253906 594.050781 1397.933594 593.691406 C 1396.214844 591.761719 1397.933594 590.679688 1398.957031 589.328125 C 1399.316406 593.035156 1399.414062 596.769531 1400.53125 600.296875 C 1401.414062 603.070312 1400.289062 606.34375 1402.847656 608.722656 C 1403.621094 609.445312 1403.511719 610.949219 1402.898438 611.859375 C 1401.328125 614.183594 1402.9375 615.753906 1404.207031 617.101562 C 1408.128906 621.261719 1408.554688 622.515625 1405.472656 627.226562 C 1404.203125 629.167969 1404.601562 630.789062 1405.035156 632.597656 C 1405.320312 633.777344 1406.257812 634.546875 1407.445312 634.476562 C 1410.5 634.296875 1413.46875 635.59375 1416.617188 634.605469 C 1418.089844 634.144531 1419.863281 635.429688 1421.566406 634.246094 C 1422.167969 633.832031 1422.425781 634.960938 1422.445312 635.574219 C 1422.492188 637.222656 1422.476562 638.871094 1422.488281 640.515625 C 1422.496094 641.527344 1422.378906 642.664062 1423.0625 643.425781 C 1424.933594 645.503906 1424.636719 647.984375 1424.660156 650.441406 C 1424.679688 651.910156 1424.160156 653.0625 1423.140625 654.117188 C 1421.15625 656.167969 1419.902344 663.996094 1421.074219 666.484375 C 1421.152344 666.648438 1421.226562 666.902344 1421.355469 666.9375 C 1424.746094 667.90625 1423.949219 670.738281 1424.246094 673.164062 C 1424.558594 675.722656 1427.464844 678.0625 1429.945312 677.8125 C 1431.117188 677.699219 1432.339844 677.199219 1432.691406 675.878906 C 1433.070312 674.464844 1434.144531 673.023438 1432.589844 671.574219 C 1430.980469 670.070312 1430.277344 668.097656 1430.101562 665.925781 C 1429.933594 663.84375 1430.648438 662.144531 1432.351562 660.914062 C 1434.742188 659.1875 1436.277344 657.222656 1434.726562 654.082031 C 1434.28125 653.183594 1434.117188 651.832031 1434.804688 651.179688 C 1436.820312 649.253906 1436.636719 646.824219 1436.953125 644.414062 C 1437.265625 642 1437.996094 639.636719 1438.542969 637.253906 C 1438.707031 636.535156 1438.859375 635.824219 1438.589844 635.09375 C 1438.011719 633.527344 1438.414062 631.929688 1439.800781 630.296875 C 1440.070312 634.332031 1440.183594 638.039062 1441.015625 641.671875 C 1441.484375 643.730469 1441.378906 646.335938 1442.042969 647.960938 C 1443.304688 651.066406 1444.761719 653.609375 1443.023438 657.011719 C 1442.75 657.539062 1444.136719 659.304688 1445.25 660.230469 C 1449.269531 663.597656 1449.617188 665.933594 1446.773438 670.414062 C 1445.816406 671.921875 1445.019531 673.269531 1445.5 675.226562 C 1445.984375 677.183594 1447.324219 677.730469 1448.90625 677.699219 C 1449.875 677.679688 1451.132812 677.902344 1451.757812 677.621094 C 1454.480469 676.414062 1457.308594 678.441406 1459.964844 677.042969 C 1461.058594 676.46875 1461.410156 677.421875 1461.433594 678.332031 C 1461.484375 680.070312 1461.507812 681.8125 1461.464844 683.546875 C 1461.421875 685.5 1461.675781 687.222656 1462.945312 688.925781 C 1464.746094 691.339844 1463.914062 698.132812 1461.648438 700.132812 C 1459.53125 701.996094 1459.003906 704.089844 1459.492188 706.75 C 1459.800781 708.441406 1459.789062 710.207031 1459.785156 711.9375 C 1459.785156 713.660156 1459.785156 715.222656 1461.890625 715.84375 C 1463.042969 716.183594 1463.109375 717.324219 1463.125 718.363281 C 1463.148438 719.554688 1463.105469 720.75 1463.21875 721.925781 C 1463.324219 723.019531 1463.808594 723.636719 1465.058594 723 C 1468.152344 721.421875 1469.328125 717.105469 1467.386719 714.28125 C 1466.445312 712.917969 1465.644531 711.492188 1465.136719 709.902344 C 1464.246094 707.125 1464.875 704.597656 1467.242188 703.105469 C 1469.109375 701.933594 1469.4375 699.808594 1471.011719 698.5625 C 1471.664062 698.050781 1471.097656 697.363281 1470.777344 696.835938 C 1469.296875 694.40625 1469.277344 692.1875 1471.609375 690.234375 C 1472.273438 689.683594 1472.683594 688.867188 1472.601562 688.050781 C 1472.167969 683.851562 1473.621094 679.992188 1474.648438 676.054688 C 1474.996094 674.710938 1475.195312 673.558594 1473.742188 672.730469 C 1472.765625 672.171875 1472.703125 671.441406 1473.730469 670.886719 C 1474.597656 670.417969 1474.921875 669.589844 1475.582031 668.804688 C 1475.21875 673.492188 1476.121094 678.066406 1477.398438 682.410156 C 1478.304688 685.46875 1476.992188 689.164062 1480.101562 691.714844 C 1481.210938 692.625 1480.925781 694.566406 1480.171875 695.867188 C 1478.589844 698.597656 1480.332031 700.519531 1481.949219 701.964844 C 1486.183594 705.753906 1486.769531 708.863281 1483.550781 713.578125 C 1480.992188 717.324219 1481.40625 719.949219 1485.011719 722.988281 C 1485.566406 723.453125 1486.011719 724.046875 1486.507812 724.578125 C 1486.8125 724.902344 1487.3125 725.546875 1487.40625 725.496094 C 1490.007812 724 1492.792969 726.503906 1495.308594 725.179688 C 1497.386719 724.085938 1497.691406 725.101562 1497.6875 726.816406 C 1497.683594 728.554688 1497.890625 730.320312 1497.648438 732.027344 C 1497.1875 735.253906 1498.714844 737.644531 1500.488281 740.015625 C 1500.847656 740.5 1501.234375 740.855469 1501.828125 740.804688 C 1504.984375 740.539062 1507.621094 742.339844 1510.5625 742.960938 C 1512.355469 743.339844 1513.128906 744.515625 1513.09375 746.339844 C 1512.988281 751.8125 1512.78125 757.023438 1515.414062 762.417969 C 1517.660156 767.023438 1517.152344 772.855469 1516.804688 778.109375 C 1516.53125 782.238281 1519.101562 785.125 1520.003906 788.683594 C 1520.324219 789.941406 1521.890625 789.523438 1522.941406 789.527344 C 1533.464844 789.554688 1543.996094 789.75 1554.515625 789.476562 C 1562.035156 789.28125 1565.492188 794.238281 1565.714844 799.585938 C 1565.941406 805.164062 1561.074219 809.683594 1554.753906 809.933594 C 1553.75 809.972656 1552.742188 809.953125 1551.734375 809.953125 C 1292.988281 809.953125 1034.238281 809.953125 775.492188 809.953125 C 771.796875 809.960938 769.953125 808.132812 769.953125 804.472656 C 769.953125 800.992188 769.953125 797.515625 769.953125 794.035156 C 769.953125 791.058594 771.402344 789.570312 774.300781 789.5625 C 783.910156 789.5625 793.519531 789.515625 803.128906 789.597656 C 805.347656 789.617188 806.007812 788.722656 807.167969 786.769531 C 810.191406 781.679688 809.246094 776.332031 809.519531 771.027344 C 809.761719 766.246094 810.199219 761.507812 813.144531 757.453125 C 813.925781 756.378906 813.855469 755.242188 813.667969 754.039062 C 813.238281 751.320312 813.042969 748.597656 813.324219 745.84375 C 813.457031 744.507812 814 743.480469 815.296875 743.183594 C 818.226562 742.515625 820.875 740.859375 823.996094 740.828125 C 825.585938 740.8125 828.609375 736.453125 828.667969 734.207031 C 828.730469 731.738281 828.699219 729.269531 828.695312 726.792969 C 828.695312 725.261719 828.921875 724.078125 830.851562 725.246094 C 831.964844 725.925781 833.105469 725.871094 834.257812 725.335938 C 834.585938 725.1875 835 724.96875 835.300781 725.046875 C 837.4375 725.613281 839.082031 725.894531 840.773438 723.488281 C 842.023438 721.707031 843.386719 720.242188 843.929688 717.992188 C 844.253906 716.636719 844.125 715.78125 843.332031 714.769531 C 842.253906 713.394531 841.378906 711.894531 840.824219 710.222656 C 839.796875 707.125 840.539062 704.65625 843.199219 702.757812 C 844.40625 701.894531 845.324219 700.941406 846.085938 699.59375 C 846.785156 698.363281 846.863281 697.546875 846.160156 696.398438 C 844.839844 694.246094 845.003906 692.21875 846.964844 690.488281 C 847.6875 689.851562 848.484375 688.921875 848.148438 688.15625 C 846.980469 685.503906 848.414062 683.035156 848.90625 680.734375 C 849.699219 677.027344 850.15625 673.386719 850.1875 669.636719 C 850.1875 669.3125 850.332031 668.992188 850.527344 668.179688 C 851.523438 670.308594 854.023438 671.546875 851.546875 673.921875 C 850.960938 674.488281 851.382812 675.6875 851.605469 676.582031 C 852.289062 679.3125 853.394531 682.019531 853.546875 684.777344 C 853.703125 687.667969 854.144531 690.1875 855.996094 692.5 C 856.648438 693.3125 856.492188 694.792969 855.84375 695.660156 C 853.65625 698.574219 855.957031 700.507812 857.5625 701.972656 C 861.746094 705.796875 862.355469 708.882812 859.132812 713.605469 C 856.625 717.273438 856.945312 719.625 860.367188 722.621094 C 860.832031 723.023438 861.222656 723.777344 861.945312 723.507812 C 862.761719 723.203125 862.683594 722.324219 862.722656 721.609375 C 862.773438 720.695312 862.800781 719.773438 862.753906 718.863281 C 862.660156 717.207031 863.132812 715.980469 864.929688 715.585938 C 866.257812 715.292969 866.59375 714.335938 866.582031 713.113281 C 866.566406 710.179688 866.53125 707.253906 866.597656 704.324219 C 866.640625 702.539062 865.542969 701.496094 864.441406 700.378906 C 861.53125 697.433594 861.125 691.046875 863.808594 687.886719 C 865.253906 686.175781 864.84375 684.28125 864.933594 682.410156 C 864.988281 681.128906 864.941406 679.84375 864.957031 678.566406 C 864.972656 677.480469 865.210938 676.820312 866.597656 677.242188 C 869.269531 678.054688 872.058594 676.949219 874.792969 677.570312 C 875.335938 677.691406 876.023438 677.402344 876.65625 677.613281 C 878.0625 678.097656 879.445312 677.675781 879.953125 676.441406 C 880.5625 674.976562 881.761719 673.359375 880.191406 671.625 C 878.695312 669.964844 877.6875 668.03125 877.617188 665.703125 C 877.558594 663.835938 878.109375 662.21875 879.632812 661.125 C 882.199219 659.273438 883.914062 657.253906 882.210938 653.859375 C 881.882812 653.210938 881.875 652.089844 882.222656 651.460938 C 885.710938 645.074219 885.433594 637.910156 886.722656 631.191406 C 887.871094 632.144531 888.085938 633.433594 887.359375 635.054688 C 886.992188 635.875 887.234375 636.660156 887.464844 637.457031 C 888.441406 640.851562 889.601562 644.210938 889.449219 647.835938 C 889.429688 648.40625 889.773438 649.132812 890.191406 649.558594 C 892 651.421875 891.960938 653.347656 890.871094 655.578125 C 889.863281 657.652344 891.554688 658.984375 892.78125 660.125 C 896.839844 663.914062 897.179688 665.855469 894.246094 670.570312 C 893.628906 671.558594 892.753906 672.40625 892.820312 673.75 C 892.925781 675.910156 893.703125 677.492188 896.050781 677.769531 C 898.269531 678.023438 901.121094 675.929688 901.59375 673.667969 C 901.800781 672.695312 901.78125 671.667969 901.773438 670.664062 C 901.757812 669.191406 901.921875 667.917969 903.6875 667.511719 C 904.613281 667.296875 904.988281 666.519531 904.996094 665.628906 C 905.023438 662.882812 905.027344 660.136719 904.996094 657.394531 C 904.988281 656.636719 904.605469 655.984375 904.078125 655.445312 C 900.507812 651.804688 901.164062 647.746094 902.917969 643.59375 C 903.851562 641.378906 903.316406 639.074219 903.410156 636.8125 C 903.484375 634.988281 903.25 634.179688 906.058594 634.542969 C 909.105469 634.9375 912.460938 635.5 915.664062 634.671875 C 916.109375 634.558594 916.546875 634.402344 916.996094 634.375 C 921.242188 634.113281 922.875 630.792969 920.527344 627.144531 C 917.6875 622.730469 918.101562 620.4375 922.027344 617.074219 C 923.410156 615.886719 924.492188 614.332031 923.3125 612.296875 C 922.792969 611.402344 922.386719 610.308594 922.890625 609.40625 C 925.984375 603.847656 925.929688 597.640625 926.746094 591.613281 C 926.832031 590.984375 927.015625 590.367188 927.160156 589.722656 C 928.886719 591.320312 928.859375 591.3125 927.96875 593.628906 C 927.511719 594.820312 928 596.023438 928.3125 597.125 C 929.085938 599.839844 929.789062 602.535156 929.726562 605.390625 C 929.71875 605.898438 929.914062 606.558594 930.257812 606.898438 C 932.160156 608.785156 932.195312 610.675781 931.105469 613.117188 C 930.410156 614.664062 931.945312 616.1875 933.058594 617.25 C 936.398438 620.441406 936.839844 623.644531 934.183594 627.296875 C 932.890625 629.078125 933.183594 632.316406 934.777344 633.882812 C 935.308594 634.402344 935.894531 635.0625 936.609375 634.273438 C 937.671875 633.109375 939.414062 632.324219 939.03125 630.265625 C 938.84375 629.234375 938.269531 628.394531 937.644531 627.621094 C 936.019531 625.628906 935.90625 623.535156 937.511719 621.613281 C 939.539062 619.179688 939.429688 616.914062 937.789062 614.355469 C 935.960938 611.507812 935.703125 608.484375 937.78125 605.617188 C 940.285156 602.152344 939.355469 597.839844 940.777344 594.117188 C 940.9375 593.707031 940.714844 593.039062 940.96875 592.789062 C 944.484375 589.296875 943.695312 584.632812 944.339844 579.652344 C 945.515625 582.191406 945 584.230469 945.265625 586.15625 C 945.519531 587.976562 945.164062 590.6875 947.601562 590.792969 C 949.550781 590.878906 950.058594 588.492188 950.28125 586.671875 C 950.507812 584.859375 951.890625 583.660156 952.597656 582.09375 C 955.480469 575.726562 957.96875 569.210938 960.578125 562.730469 C 961.253906 561.054688 962.027344 559.46875 961.273438 557.488281 C 960.691406 555.972656 961.980469 554.550781 962.269531 553.03125 C 962.835938 550.039062 962.015625 546.8125 963.078125 544.109375 C 964.464844 540.585938 964.871094 537.367188 963.96875 533.679688 C 963.363281 531.210938 964.335938 528.601562 965.179688 526.171875 C 966.539062 522.253906 967.632812 518.179688 967.496094 514.101562 C 967.386719 510.777344 966.992188 507.464844 967.324219 504.121094 C 967.386719 503.507812 967.097656 502.5625 967.910156 502.539062 C 968.988281 502.507812 968.621094 503.515625 968.648438 504.207031 C 968.710938 505.808594 968.058594 507.632812 970.136719 508.609375 C 970.859375 508.949219 970.539062 509.613281 970.027344 509.894531 C 967.722656 511.191406 968.320312 513.265625 968.496094 515.25 C 968.882812 519.566406 970.128906 523.679688 971.382812 527.796875 C 972.394531 531.117188 972.609375 534.445312 971.476562 537.765625 C 971.074219 538.949219 971.367188 539.914062 972 540.867188 C 973.148438 542.582031 973.871094 544.484375 973.828125 546.535156 C 973.757812 549.785156 975.015625 552.765625 975.46875 555.894531 C 975.828125 558.339844 975.191406 560.828125 976.328125 563.300781 C 978.183594 567.316406 979.90625 571.425781 981.402344 575.5625 C 982.890625 579.675781 985.667969 583.195312 986.542969 587.535156 C 986.597656 587.800781 986.671875 588.109375 986.847656 588.285156 C 987.761719 589.1875 987.8125 591.210938 989.625 590.875 C 991.386719 590.554688 991.566406 588.867188 991.777344 587.414062 C 992.109375 585.09375 991.464844 582.667969 992.855469 580.378906 Z M 1507.328125 788.847656 C 1506.414062 785.0625 1505.632812 781.421875 1504.617188 777.847656 C 1504.273438 776.644531 1503.074219 776.363281 1501.90625 777.007812 C 1500.480469 777.796875 1500.953125 778.753906 1501.757812 779.671875 C 1503.78125 781.992188 1505.347656 784.46875 1504.925781 787.761719 C 1504.828125 788.511719 1505.117188 789.257812 1505.996094 789.425781 C 1506.585938 789.542969 1507.347656 789.726562 1507.328125 788.847656 Z M 819.808594 789.441406 C 820.746094 789.320312 821.058594 788.597656 820.960938 787.859375 C 820.53125 784.640625 822.125 782.269531 824.011719 779.957031 C 824.550781 779.292969 825.4375 778.640625 824.925781 777.574219 C 824.628906 776.953125 824.046875 776.648438 823.339844 776.71875 C 822.140625 776.839844 821.613281 777.726562 821.371094 778.726562 C 820.574219 782.003906 819.855469 785.296875 819.109375 788.582031 C 818.972656 789.179688 819.238281 789.425781 819.8125 789.441406 Z M 819.808594 789.441406 "/></g></g></svg>